<svg width="39" height="40" viewBox="0 0 39 40" fill="none" xmlns="http://www.w3.org/2000/svg">
<g filter="url(#filter0_d_45_13)">
<path d="M19.5601 19.8044C21.6311 19.8044 23.3101 18.0918 23.3101 15.9794C23.3101 13.8669 21.6311 12.1544 19.5601 12.1544C17.489 12.1544 15.8101 13.8669 15.8101 15.9794C15.8101 18.0918 17.489 19.8044 19.5601 19.8044Z" stroke="black" stroke-width="2" stroke-linecap="round" stroke-linejoin="round"/>
<path d="M28.8101 19.8043C28.6437 20.1889 28.594 20.6155 28.6676 21.0291C28.7411 21.4427 28.9344 21.8244 29.2226 22.1248L29.2976 22.2013C29.53 22.4382 29.7144 22.7194 29.8402 23.029C29.966 23.3385 30.0308 23.6704 30.0308 24.0055C30.0308 24.3406 29.966 24.6724 29.8402 24.982C29.7144 25.2915 29.53 25.5728 29.2976 25.8096C29.0654 26.0467 28.7897 26.2348 28.4862 26.3631C28.1827 26.4914 27.8573 26.5575 27.5288 26.5575C27.2003 26.5575 26.875 26.4914 26.5715 26.3631C26.268 26.2348 25.9922 26.0467 25.7601 25.8096L25.6851 25.7331C25.3905 25.4392 25.0163 25.242 24.6108 25.167C24.2053 25.092 23.7871 25.1426 23.4101 25.3123C23.0403 25.474 22.725 25.7423 22.5029 26.0844C22.2808 26.4265 22.1617 26.8273 22.1601 27.2376V27.4543C22.1601 28.1306 21.8967 28.7793 21.4278 29.2575C20.959 29.7357 20.3231 30.0043 19.6601 30.0043C18.997 30.0043 18.3611 29.7357 17.8923 29.2575C17.4234 28.7793 17.1601 28.1306 17.1601 27.4543V27.3396C17.1504 26.9176 17.0165 26.5083 16.7757 26.1649C16.5349 25.8216 16.1985 25.5601 15.8101 25.4143C15.433 25.2446 15.0148 25.194 14.6093 25.269C14.2038 25.344 13.8297 25.5412 13.5351 25.8351L13.4601 25.9116C13.2279 26.1487 12.9522 26.3368 12.6487 26.4651C12.3452 26.5934 12.0198 26.6595 11.6913 26.6595C11.3628 26.6595 11.0375 26.5934 10.734 26.4651C10.4305 26.3368 10.1547 26.1487 9.92256 25.9116C9.69012 25.6748 9.50572 25.3935 9.37991 25.084C9.2541 24.7744 9.18934 24.4426 9.18934 24.1075C9.18934 23.7724 9.2541 23.4405 9.37991 23.131C9.50572 22.8214 9.69012 22.5402 9.92256 22.3033L9.99756 22.2268C10.2857 21.9264 10.479 21.5447 10.5526 21.1311C10.6261 20.7175 10.5765 20.2909 10.4101 19.9063C10.2516 19.5292 9.9885 19.2076 9.65314 18.9811C9.31778 18.7546 8.92479 18.633 8.52256 18.6313H8.31006C7.64702 18.6313 7.01113 18.3627 6.54229 17.8845C6.07345 17.4063 5.81006 16.7576 5.81006 16.0813C5.81006 15.405 6.07345 14.7564 6.54229 14.2782C7.01113 13.8 7.64702 13.5313 8.31006 13.5313H8.42256C8.8363 13.5215 9.23756 13.3849 9.57418 13.1393C9.9108 12.8937 10.1672 12.5505 10.3101 12.1543C10.4765 11.7698 10.5261 11.3432 10.4526 10.9296C10.379 10.516 10.1857 10.1343 9.89756 9.83385L9.82256 9.75735C9.59012 9.52052 9.40572 9.23928 9.27991 8.92972C9.1541 8.62015 9.08934 8.28833 9.08934 7.95322C9.08934 7.61811 9.1541 7.28629 9.27991 6.97672C9.40572 6.66716 9.59012 6.38592 9.82256 6.1491C10.0547 5.91201 10.3305 5.72392 10.634 5.59559C10.9375 5.46727 11.2628 5.40121 11.5913 5.40121C11.9198 5.40121 12.2452 5.46727 12.5487 5.59559C12.8522 5.72392 13.1279 5.91201 13.3601 6.1491L13.4351 6.2256C13.7297 6.51953 14.1038 6.71671 14.5093 6.7917C14.9148 6.8667 15.333 6.81607 15.7101 6.64635H15.8101C16.1798 6.48472 16.4951 6.21636 16.7172 5.87429C16.9393 5.53222 17.0585 5.13137 17.0601 4.7211V4.50435C17.0601 3.82804 17.3235 3.17944 17.7923 2.70122C18.2611 2.22301 18.897 1.95435 19.5601 1.95435C20.2231 1.95435 20.859 2.22301 21.3278 2.70122C21.7967 3.17944 22.0601 3.82804 22.0601 4.50435V4.6191C22.0617 5.02937 22.1808 5.43022 22.4029 5.77229C22.625 6.11436 22.9403 6.38272 23.3101 6.54435C23.6871 6.71407 24.1053 6.7647 24.5108 6.6897C24.9163 6.61471 25.2905 6.41753 25.5851 6.1236L25.6601 6.0471C25.8922 5.81001 26.168 5.62192 26.4715 5.49359C26.775 5.36527 27.1003 5.29921 27.4288 5.29921C27.7573 5.29921 28.0827 5.36527 28.3862 5.49359C28.6897 5.62192 28.9654 5.81001 29.1976 6.0471C29.43 6.28392 29.6144 6.56516 29.7402 6.87472C29.866 7.18429 29.9308 7.51611 29.9308 7.85122C29.9308 8.18633 29.866 8.51815 29.7402 8.82772C29.6144 9.13728 29.43 9.41852 29.1976 9.65535L29.1226 9.73185C28.8344 10.0323 28.6411 10.414 28.5676 10.8276C28.494 11.2412 28.5437 11.6678 28.7101 12.0523V12.1543C28.8685 12.5315 29.1316 12.8531 29.467 13.0796C29.8023 13.3061 30.1953 13.4277 30.5976 13.4293H30.8101C31.4731 13.4293 32.109 13.698 32.5778 14.1762C33.0467 14.6544 33.3101 15.303 33.3101 15.9793C33.3101 16.6556 33.0467 17.3043 32.5778 17.7825C32.109 18.2607 31.4731 18.5293 30.8101 18.5293H30.6976C30.2953 18.531 29.9023 18.6526 29.567 18.8791C29.2316 19.1056 28.9685 19.4272 28.8101 19.8043V19.8043Z" stroke="black" stroke-width="2" stroke-linecap="round" stroke-linejoin="round"/>
</g>
<defs>
<filter id="filter0_d_45_13" x="0.560059" y="0.679352" width="38" height="38.6" filterUnits="userSpaceOnUse" color-interpolation-filters="sRGB">
<feFlood flood-opacity="0" result="BackgroundImageFix"/>
<feColorMatrix in="SourceAlpha" type="matrix" values="0 0 0 0 0 0 0 0 0 0 0 0 0 0 0 0 0 0 127 0" result="hardAlpha"/>
<feOffset dy="4"/>
<feGaussianBlur stdDeviation="2"/>
<feComposite in2="hardAlpha" operator="out"/>
<feColorMatrix type="matrix" values="0 0 0 0 0 0 0 0 0 0 0 0 0 0 0 0 0 0 0.25 0"/>
<feBlend mode="normal" in2="BackgroundImageFix" result="effect1_dropShadow_45_13"/>
<feBlend mode="normal" in="SourceGraphic" in2="effect1_dropShadow_45_13" result="shape"/>
</filter>
</defs>
</svg>
